<svg width="125" height="70" viewBox="0 0 125 70" fill="none" xmlns="http://www.w3.org/2000/svg">
<path d="M7.59091 47.4091C6.48485 47.4091 5.48106 47.2008 4.57955 46.7841C3.67803 46.3598 2.96212 45.75 2.43182 44.9545C1.90152 44.1515 1.63636 43.1818 1.63636 42.0455C1.63636 41.0455 1.83333 40.2348 2.22727 39.6136C2.62121 38.9848 3.14773 38.4924 3.80682 38.1364C4.46591 37.7803 5.19318 37.5152 5.98864 37.3409C6.79167 37.1591 7.59848 37.0152 8.40909 36.9091C9.4697 36.7727 10.3295 36.6705 10.9886 36.6023C11.6553 36.5265 12.1402 36.4015 12.4432 36.2273C12.7538 36.053 12.9091 35.75 12.9091 35.3182V35.2273C12.9091 34.1061 12.6023 33.2348 11.9886 32.6136C11.3826 31.9924 10.4621 31.6818 9.22727 31.6818C7.94697 31.6818 6.94318 31.9621 6.21591 32.5227C5.48864 33.0833 4.97727 33.6818 4.68182 34.3182L2.13636 33.4091C2.59091 32.3485 3.19697 31.5227 3.95455 30.9318C4.7197 30.3333 5.55303 29.9167 6.45455 29.6818C7.36364 29.4394 8.25758 29.3182 9.13636 29.3182C9.69697 29.3182 10.3409 29.3864 11.0682 29.5227C11.803 29.6515 12.5114 29.9205 13.1932 30.3295C13.8826 30.7386 14.4545 31.3561 14.9091 32.1818C15.3636 33.0076 15.5909 34.1136 15.5909 35.5V47H12.9091V44.6364H12.7727C12.5909 45.0152 12.2879 45.4205 11.8636 45.8523C11.4394 46.2841 10.875 46.6515 10.1705 46.9545C9.46591 47.2576 8.60606 47.4091 7.59091 47.4091ZM8 45C9.06061 45 9.95455 44.7917 10.6818 44.375C11.4167 43.9583 11.9697 43.4205 12.3409 42.7614C12.7197 42.1023 12.9091 41.4091 12.9091 40.6818V38.2273C12.7955 38.3636 12.5455 38.4886 12.1591 38.6023C11.7803 38.7083 11.3409 38.803 10.8409 38.8864C10.3485 38.9621 9.86742 39.0303 9.39773 39.0909C8.93561 39.1439 8.56061 39.1894 8.27273 39.2273C7.57576 39.3182 6.92424 39.4659 6.31818 39.6705C5.7197 39.8674 5.23485 40.1667 4.86364 40.5682C4.5 40.9621 4.31818 41.5 4.31818 42.1818C4.31818 43.1136 4.66288 43.8182 5.35227 44.2955C6.04924 44.7652 6.93182 45 8 45ZM31.4858 39.8636V29.5455H34.1676V47H31.4858V44.0455H31.304C30.8949 44.9318 30.2585 45.6856 29.3949 46.3068C28.5313 46.9205 27.4403 47.2273 26.1222 47.2273C25.0312 47.2273 24.0616 46.9886 23.2131 46.5114C22.3646 46.0265 21.6979 45.2992 21.2131 44.3295C20.7282 43.3523 20.4858 42.1212 20.4858 40.6364V29.5455H23.1676V40.4545C23.1676 41.7273 23.5237 42.7424 24.2358 43.5C24.9555 44.2576 25.8722 44.6364 26.9858 44.6364C27.6525 44.6364 28.3305 44.4659 29.0199 44.125C29.7169 43.7841 30.3002 43.2614 30.7699 42.5568C31.2472 41.8523 31.4858 40.9545 31.4858 39.8636ZM46.1705 47.3636C44.5341 47.3636 43.125 46.9773 41.9432 46.2045C40.7614 45.4318 39.8523 44.3674 39.2159 43.0114C38.5795 41.6553 38.2614 40.1061 38.2614 38.3636C38.2614 36.5909 38.5871 35.0265 39.2386 33.6705C39.8977 32.3068 40.8144 31.2424 41.9886 30.4773C43.1705 29.7045 44.5492 29.3182 46.125 29.3182C47.3523 29.3182 48.4583 29.5455 49.4432 30C50.428 30.4545 51.2348 31.0909 51.8636 31.9091C52.4924 32.7273 52.8826 33.6818 53.0341 34.7727H50.3523C50.1477 33.9773 49.6932 33.2727 48.9886 32.6591C48.2917 32.0379 47.3523 31.7273 46.1705 31.7273C45.125 31.7273 44.2083 32 43.4205 32.5455C42.6402 33.0833 42.0303 33.8447 41.5909 34.8295C41.1591 35.8068 40.9432 36.9545 40.9432 38.2727C40.9432 39.6212 41.1553 40.7955 41.5795 41.7955C42.0114 42.7955 42.6174 43.572 43.3977 44.125C44.1856 44.678 45.1098 44.9545 46.1705 44.9545C46.8674 44.9545 47.5 44.8333 48.0682 44.5909C48.6364 44.3485 49.1174 44 49.5114 43.5455C49.9053 43.0909 50.1856 42.5455 50.3523 41.9091H53.0341C52.8826 42.9394 52.5076 43.8674 51.9091 44.6932C51.3182 45.5114 50.5341 46.1629 49.5568 46.6477C48.5871 47.125 47.4583 47.3636 46.1705 47.3636ZM64.5455 29.5455V31.8182H55.5V29.5455H64.5455ZM58.1364 25.3636H60.8182V42C60.8182 42.7576 60.928 43.3258 61.1477 43.7045C61.375 44.0758 61.6629 44.3258 62.0114 44.4545C62.3674 44.5758 62.7424 44.6364 63.1364 44.6364C63.4318 44.6364 63.6742 44.6212 63.8636 44.5909C64.053 44.553 64.2045 44.5227 64.3182 44.5L64.8636 46.9091C64.6818 46.9773 64.428 47.0455 64.1023 47.1136C63.7765 47.1894 63.3636 47.2273 62.8636 47.2273C62.1061 47.2273 61.3636 47.0644 60.6364 46.7386C59.9167 46.4129 59.3182 45.9167 58.8409 45.25C58.3712 44.5833 58.1364 43.7424 58.1364 42.7273V25.3636ZM68.5795 47V29.5455H71.2614V47H68.5795ZM69.9432 26.6364C69.4205 26.6364 68.9697 26.4583 68.5909 26.1023C68.2197 25.7462 68.0341 25.3182 68.0341 24.8182C68.0341 24.3182 68.2197 23.8902 68.5909 23.5341C68.9697 23.178 69.4205 23 69.9432 23C70.4659 23 70.9129 23.178 71.2841 23.5341C71.6629 23.8902 71.8523 24.3182 71.8523 24.8182C71.8523 25.3182 71.6629 25.7462 71.2841 26.1023C70.9129 26.4583 70.4659 26.6364 69.9432 26.6364ZM122.207 23.7273V47H117.957L107.832 32.3523H107.662V47H102.741V23.7273H107.06L117.105 38.3636H117.31V23.7273H122.207Z" fill="white"/>
<path d="M94.1774 26.4688C97.0988 28.5224 99 31.8811 99 35.6825C99 41.9254 93.8621 46.9863 87.5232 47C81.1936 47.0137 76.0093 41.9345 76 35.7008C75.9954 31.8994 77.8966 28.5315 80.8133 26.4734C81.3559 26.0946 82.1117 26.2544 82.4363 26.8248L83.169 28.1071C83.4425 28.5863 83.3127 29.1932 82.8629 29.5218C80.9385 30.9274 79.7097 33.1544 79.7097 35.678C79.705 39.8901 83.1643 43.3492 87.5 43.3492C91.7476 43.3492 95.3181 39.9631 95.2903 35.6323C95.2764 33.2684 94.145 30.9867 92.1325 29.5173C91.6827 29.1887 91.5575 28.5817 91.8311 28.1071L92.5637 26.8248C92.8883 26.2589 93.6395 26.0901 94.1774 26.4688ZM89.3548 36.0476V25.0952C89.3548 24.4883 88.8587 24 88.2419 24H86.7581C86.1413 24 85.6452 24.4883 85.6452 25.0952V36.0476C85.6452 36.6545 86.1413 37.1428 86.7581 37.1428H88.2419C88.8587 37.1428 89.3548 36.6545 89.3548 36.0476Z" fill="white"/>
</svg>
