<svg width="23" height="23" viewBox="0 0 23 23" fill="none" xmlns="http://www.w3.org/2000/svg">
<path d="M18.1774 2.46885C21.0988 4.52242 23 7.88114 23 11.6825C23 17.9254 17.8621 22.9863 11.5232 23C5.19355 23.0137 0.00928265 17.9345 8.46346e-06 11.7008C-0.00462863 7.89939 1.89658 4.53154 4.81331 2.47341C5.35585 2.09464 6.1117 2.25436 6.4363 2.8248L7.16896 4.10714C7.44255 4.5863 7.31271 5.19325 6.86291 5.52182C4.93851 6.92737 3.70968 9.15435 3.70968 11.678C3.70505 15.8901 7.16432 19.3492 11.5 19.3492C15.7476 19.3492 19.3181 15.9631 19.2903 11.6323C19.2764 9.26844 18.145 6.9867 16.1325 5.51726C15.6827 5.18868 15.5575 4.58174 15.8311 4.10714L16.5637 2.8248C16.8883 2.25893 17.6395 2.09008 18.1774 2.46885ZM13.3548 12.0476V1.09524C13.3548 0.488293 12.8587 0 12.2419 0H10.7581C10.1413 0 9.64517 0.488293 9.64517 1.09524V12.0476C9.64517 12.6545 10.1413 13.1428 10.7581 13.1428H12.2419C12.8587 13.1428 13.3548 12.6545 13.3548 12.0476Z" fill="white"/>
</svg>
