<svg width="192" height="155" viewBox="0 0 192 155" fill="none" xmlns="http://www.w3.org/2000/svg">
<path d="M159.079 135.576H33.5563C25.5572 135.576 19.0729 129.092 19.0729 121.093V34.1919C19.0729 26.1929 25.5572 19.7085 33.5563 19.7085H159.079C167.079 19.7085 173.563 26.1929 173.563 34.1919V121.093C173.563 129.092 167.079 135.576 159.079 135.576ZM52.8676 36.6058C43.5354 36.6058 35.9702 44.171 35.9702 53.5032C35.9702 62.8354 43.5354 70.4005 52.8676 70.4005C62.1997 70.4005 69.7649 62.8354 69.7649 53.5032C69.7649 44.171 62.1997 36.6058 52.8676 36.6058ZM38.3841 116.265H154.252V82.4701L127.845 56.0634C126.431 54.6495 124.138 54.6495 122.724 56.0634L81.8345 96.9535L65.0835 80.2025C63.6695 78.7886 61.3769 78.7886 59.9627 80.2025L38.3841 101.781V116.265Z" fill="white" fill-opacity="0.2"/>
</svg>
