<svg width="26" height="26" viewBox="0 0 26 26" fill="none" xmlns="http://www.w3.org/2000/svg">
<path d="M13.1582 14.6143C17.04 14.6143 20.1895 11.4648 20.1895 7.58301C20.1895 3.70117 17.04 0.551758 13.1582 0.551758C9.27637 0.551758 6.12695 3.70117 6.12695 7.58301C6.12695 11.4648 9.27637 14.6143 13.1582 14.6143ZM19.4082 16.1768H16.7178C15.6338 16.6748 14.4277 16.958 13.1582 16.958C11.8887 16.958 10.6875 16.6748 9.59863 16.1768H6.9082C3.45605 16.1768 0.658203 18.9746 0.658203 22.4268V23.208C0.658203 24.502 1.70801 25.5518 3.00195 25.5518H23.3145C24.6084 25.5518 25.6582 24.502 25.6582 23.208V22.4268C25.6582 18.9746 22.8604 16.1768 19.4082 16.1768Z" fill="gray"/>
</svg>
