<svg width="220" height="220" viewBox="0 0 220 220" fill="none" xmlns="http://www.w3.org/2000/svg">
<path d="M216.98 85.6634L207.257 75.9409C203.23 71.9134 196.7 71.9134 192.673 75.9409L190.242 78.3716L141.628 29.7581L144.059 27.3273C148.087 23.2999 148.087 16.7704 144.059 12.7433L134.337 3.02035C130.309 -1.00711 123.78 -1.00711 119.753 3.02035L66.2776 56.4954C62.2501 60.5229 62.2501 67.0524 66.2776 71.0794L76.0001 80.802C80.0276 84.8294 86.5571 84.8294 90.5842 80.802L93.0149 78.3712L110.03 95.386L75.2078 130.208L72.777 127.777C67.4072 122.407 58.7013 122.407 53.3315 127.777L4.02748 177.082C-1.34233 182.452 -1.34233 191.158 4.02748 196.528L23.473 215.973C28.8428 221.343 37.5487 221.343 42.9185 215.973L92.223 166.669C97.5928 161.299 97.5928 152.593 92.223 147.223L89.7922 144.792L124.614 109.97L141.629 126.985L139.198 129.416C135.171 133.443 135.171 139.973 139.198 144L148.921 153.723C152.948 157.75 159.478 157.75 163.505 153.723L216.98 100.247C221.007 96.2204 221.007 89.6909 216.98 85.6634V85.6634Z" fill="white"/>
</svg>
